<?xml version="1.0" encoding="UTF-8"?>
<svg width="740px" height="480px" viewBox="0 0 740 480" version="1.1" xmlns="http://www.w3.org/2000/svg" xmlns:xlink="http://www.w3.org/1999/xlink">
    <title>stages</title>
    <defs>
        <linearGradient x1="0%" y1="50%" x2="100%" y2="50%" id="linearGradient-1">
            <stop stop-color="#5E6F6E" offset="0%"></stop>
            <stop stop-color="#736A55" offset="14.3307244%"></stop>
            <stop stop-color="#5A281C" offset="42.85304%"></stop>
            <stop stop-color="#1C295A" offset="57.1259592%"></stop>
            <stop stop-color="#555D73" offset="85.6863035%"></stop>
            <stop stop-color="#5E6F6E" offset="100%"></stop>
        </linearGradient>
        <rect id="path-2" x="0" y="0" width="35" height="6"></rect>
        <linearGradient x1="0%" y1="50%" x2="100%" y2="50%" id="linearGradient-4">
            <stop stop-color="#5E6F6E" offset="0%"></stop>
            <stop stop-color="#736A55" offset="14.3307244%"></stop>
            <stop stop-color="#5A281C" offset="42.85304%"></stop>
            <stop stop-color="#1C295A" offset="57.1259592%"></stop>
            <stop stop-color="#555D73" offset="85.6863035%"></stop>
            <stop stop-color="#5E6F6E" offset="100%"></stop>
        </linearGradient>
        <rect id="path-5" x="35" y="0" width="35" height="6"></rect>
        <rect id="path-7" x="0" y="0" width="35" height="6"></rect>
        <rect id="path-9" x="35" y="0" width="35" height="6"></rect>
    </defs>
    <g id="stages" stroke="none" stroke-width="1" fill="none" fill-rule="evenodd">
        <rect fill="#3F474D" x="0" y="0" width="740" height="480"></rect>
        <g id="Group-8" transform="translate(120.000000, 0.000000)">
            <rect id="Rectangle" fill-opacity="0.16" fill="#000000" x="0" y="0" width="200" height="480"></rect>
            <rect id="Rectangle" fill-opacity="0.16" fill="#000000" x="300" y="0" width="200" height="480"></rect>
            <text id="进入" font-family="PingFangSC-Regular, PingFang SC" font-size="72" font-weight="normal" fill="#FFFFFF" fill-opacity="0.08">
                <tspan x="28" y="86">进入</tspan>
            </text>
            <text id="离开" font-family="PingFangSC-Regular, PingFang SC" font-size="72" font-weight="normal" fill="#FFFFFF" fill-opacity="0.08">
                <tspan x="328" y="86">离开</tspan>
            </text>
        </g>
        <g id="Group-3" transform="translate(20.000000, 175.000000)">
            <rect id="Rectangle" stroke="#3F474D" fill-opacity="0.6" fill="#000000" x="0" y="176" width="100" height="44"></rect>
            <rect id="Rectangle" stroke="#3F474D" fill-opacity="0.6" fill="#000000" x="100" y="176" width="100" height="44"></rect>
            <rect id="Rectangle" stroke="#3F474D" fill-opacity="0.6" fill="#000000" x="100" y="88" width="200" height="44"></rect>
            <rect id="Rectangle" stroke="#3F474D" fill-opacity="0.6" fill="#000000" x="200" y="0" width="300" height="44"></rect>
            <rect id="Rectangle" stroke="#3F474D" fill-opacity="0.6" fill="#000000" x="100" y="0" width="100" height="44"></rect>
            <rect id="Rectangle" stroke="#3F474D" fill-opacity="0.6" fill="#000000" x="100" y="44" width="200" height="44"></rect>
            <rect id="Rectangle" stroke="#3F474D" fill-opacity="0.6" fill="#000000" x="400" y="44" width="200" height="44"></rect>
            <rect id="Rectangle" stroke="#3F474D" fill-opacity="0.6" fill="#000000" x="500" y="0" width="100" height="44"></rect>
            <rect id="Rectangle" stroke="#3F474D" fill-opacity="0.6" fill="#000000" x="400" y="88" width="200" height="44"></rect>
            <rect id="Rectangle" stroke="#3F474D" fill-opacity="0.6" fill="#000000" x="200" y="176" width="100" height="44"></rect>
            <rect id="Rectangle" stroke="#3F474D" fill-opacity="0.6" fill="#000000" x="100" y="220" width="100" height="44"></rect>
            <rect id="Rectangle" stroke="#3F474D" fill-opacity="0.6" fill="#000000" x="100" y="132" width="200" height="44"></rect>
            <rect id="Rectangle" stroke="#3F474D" fill-opacity="0.6" fill="#000000" x="200" y="220" width="100" height="44"></rect>
            <rect id="Rectangle" stroke="#3F474D" fill-opacity="0.6" fill="#000000" x="300" y="176" width="100" height="44"></rect>
            <rect id="Rectangle" stroke="#3F474D" fill-opacity="0.6" fill="#000000" x="400" y="176" width="100" height="44"></rect>
            <rect id="Rectangle" stroke="#3F474D" fill-opacity="0.6" fill="#000000" x="500" y="176" width="100" height="44"></rect>
            <rect id="Rectangle" stroke="#3F474D" fill-opacity="0.6" fill="#000000" x="600" y="176" width="100" height="44"></rect>
            <text id="initial-initialStyle" font-family="PingFangSC-Regular, PingFang SC" font-size="12" font-weight="normal" line-spacing="16" fill="#FFFFFF" fill-opacity="0.79622282">
                <tspan x="34.638" y="195">initial</tspan>
                <tspan x="21" y="211">initialStyle</tspan>
            </text>
            <text id="enterFrom-enterFromS" font-family="PingFangSC-Regular, PingFang SC" font-size="12" font-weight="normal" line-spacing="16" fill="#FFFFFF" fill-opacity="0.79622282">
                <tspan x="120.638" y="195">enterFrom</tspan>
                <tspan x="107" y="211">enterFromStyle</tspan>
            </text>
            <text id="enterActive-enterAct" font-family="PingFangSC-Regular, PingFang SC" font-size="12" font-weight="normal" line-spacing="16" fill="#FFFFFF" fill-opacity="0.79622282">
                <tspan x="167.638" y="107">enterActive</tspan>
                <tspan x="154" y="123">enterActiveStyle</tspan>
            </text>
            <text id="middle-middleStyle" font-family="PingFangSC-Regular, PingFang SC" font-size="12" font-weight="normal" line-spacing="16" fill="#FFFFFF" fill-opacity="0.79622282">
                <tspan x="330.638" y="19">middle</tspan>
                <tspan x="317" y="35">middleStyle</tspan>
            </text>
            <text id="side-sideStyle" font-family="PingFangSC-Regular, PingFang SC" font-size="12" font-weight="normal" line-spacing="16" fill="#FFFFFF" fill-opacity="0.79622282">
                <tspan x="137.638" y="19">side</tspan>
                <tspan x="124" y="35">sideStyle</tspan>
            </text>
            <text id="active-activeStyle" font-family="PingFangSC-Regular, PingFang SC" font-size="12" font-weight="normal" line-spacing="16" fill="#FFFFFF" fill-opacity="0.79622282">
                <tspan x="182.638" y="63">active</tspan>
                <tspan x="169" y="79">activeStyle</tspan>
            </text>
            <text id="active-activeStyle" font-family="PingFangSC-Regular, PingFang SC" font-size="12" font-weight="normal" line-spacing="16" fill="#FFFFFF" fill-opacity="0.79622282">
                <tspan x="482.638" y="63">active</tspan>
                <tspan x="469" y="79">activeStyle</tspan>
            </text>
            <text id="side-sideStyle" font-family="PingFangSC-Regular, PingFang SC" font-size="12" font-weight="normal" line-spacing="16" fill="#FFFFFF" fill-opacity="0.79622282">
                <tspan x="537.638" y="19">side</tspan>
                <tspan x="524" y="35">sideStyle</tspan>
            </text>
            <text id="leaveActive-leaveAct" font-family="PingFangSC-Regular, PingFang SC" font-size="12" font-weight="normal" line-spacing="16" fill="#FFFFFF" fill-opacity="0.79622282">
                <tspan x="467.638" y="107">leaveActive</tspan>
                <tspan x="454" y="123">leaveActiveStyle</tspan>
            </text>
            <text id="enterTo-enterToStyle" font-family="PingFangSC-Regular, PingFang SC" font-size="12" font-weight="normal" line-spacing="16" fill="#FFFFFF" fill-opacity="0.79622282">
                <tspan x="227.638" y="195">enterTo</tspan>
                <tspan x="214" y="211">enterToStyle</tspan>
            </text>
            <text id="appealFrom-appealFro" font-family="PingFangSC-Regular, PingFang SC" font-size="12" font-weight="normal" line-spacing="16" fill="#FFFFFF" fill-opacity="0.79622282">
                <tspan x="117.638" y="239">appealFrom</tspan>
                <tspan x="104" y="255">appealFromStyle</tspan>
            </text>
            <text id="appealActive-appealA" font-family="PingFangSC-Regular, PingFang SC" font-size="12" font-weight="normal" line-spacing="16" fill="#FFFFFF" fill-opacity="0.79622282">
                <tspan x="163.638" y="151">appealActive</tspan>
                <tspan x="150" y="167">appealActiveStyle</tspan>
            </text>
            <text id="appealTo-appealToSty" font-family="PingFangSC-Regular, PingFang SC" font-size="12" font-weight="normal" line-spacing="16" fill="#FFFFFF" fill-opacity="0.79622282">
                <tspan x="223.638" y="239">appealTo</tspan>
                <tspan x="210" y="255">appealToStyle</tspan>
            </text>
            <text id="enterEnded-enterEnde" font-family="PingFangSC-Regular, PingFang SC" font-size="12" font-weight="normal" line-spacing="16" fill="#FFFFFF" fill-opacity="0.79622282">
                <tspan x="317.638" y="195">enterEnded</tspan>
                <tspan x="304" y="211">enterEndedStyle</tspan>
            </text>
            <text id="leaveFrom-leaveFromS" font-family="PingFangSC-Regular, PingFang SC" font-size="12" font-weight="normal" line-spacing="16" fill="#FFFFFF" fill-opacity="0.79622282">
                <tspan x="420.638" y="195">leaveFrom</tspan>
                <tspan x="407" y="211">leaveFromStyle</tspan>
            </text>
            <text id="leaveTo-leaveToStyle" font-family="PingFangSC-Regular, PingFang SC" font-size="12" font-weight="normal" line-spacing="16" fill="#FFFFFF" fill-opacity="0.79622282">
                <tspan x="527.638" y="195">leaveTo</tspan>
                <tspan x="514" y="211">leaveToStyle</tspan>
            </text>
            <text id="leaveEnded-leaveEnde" font-family="PingFangSC-Regular, PingFang SC" font-size="12" font-weight="normal" line-spacing="16" fill="#FFFFFF" fill-opacity="0.79622282">
                <tspan x="617.638" y="195">leaveEnded</tspan>
                <tspan x="604" y="211">leaveEndedStyle</tspan>
            </text>
        </g>
        <g id="Group" transform="translate(20.000000, 40.000000)">
            <rect id="Rectangle" fill-opacity="0.6" fill="#000000" x="0" y="70" width="700" height="64"></rect>
            <rect id="Rectangle" fill="url(#linearGradient-1)" x="0" y="114" width="700" height="20"></rect>
            <g id="Group-4" transform="translate(99.500000, 106.000000)" fill="#DDDDDD" fill-rule="nonzero">
                <path id="Line-2" d="M5,-0.5 L5,0.5 L1,0.5 L1,20.5 L0,20.5 L0,0.499 L-4,0.5 L-4,-0.5 L1,-0.5 L1,-0.499 L5,-0.5 Z"></path>
                <path id="Line-2" d="M105,-0.5 L105,0.5 L101,0.5 L101,20.5 L100,20.5 L100,0.499 L96,0.5 L96,-0.5 L101,-0.5 L101,-0.499 L105,-0.5 Z"></path>
                <path id="Line-2" d="M205,-0.5 L205,0.5 L201,0.5 L201,20.5 L200,20.5 L200,0.499 L196,0.5 L196,-0.5 L201,-0.5 L201,-0.499 L205,-0.5 Z"></path>
                <path id="Line-2" d="M305,-0.5 L305,0.5 L301,0.5 L301,20.5 L300,20.5 L300,0.499 L296,0.5 L296,-0.5 L301,-0.5 L301,-0.499 L305,-0.5 Z"></path>
                <path id="Line-2" d="M405,-0.5 L405,0.5 L401,0.5 L401,20.5 L400,20.5 L400,0.499 L396,0.5 L396,-0.5 L401,-0.5 L401,-0.499 L405,-0.5 Z"></path>
                <path id="Line-2" d="M505,-0.5 L505,0.5 L501,0.5 L501,20.5 L500,20.5 L500,0.499 L496,0.5 L496,-0.5 L501,-0.5 L501,-0.499 L505,-0.5 Z"></path>
            </g>
            <g id="Group-2" transform="translate(72.000000, 84.000000)" fill="#FFFFFF" fill-opacity="0.79622282" font-family="PingFangSC-Regular, PingFang SC" font-size="12" font-weight="normal" line-spacing="16">
                <text id="enterStart">
                    <tspan x="0" y="13">enterStart</tspan>
                </text>
                <text id="entering">
                    <tspan x="105" y="13">entering</tspan>
                </text>
                <text id="enterEnded">
                    <tspan x="196" y="13">enterEnded</tspan>
                </text>
                <text id="leaveStart">
                    <tspan x="300" y="13">leaveStart</tspan>
                </text>
                <text id="leaving">
                    <tspan x="409" y="13">leaving</tspan>
                </text>
                <text id="leaveEnded">
                    <tspan x="496" y="13">leaveEnded</tspan>
                </text>
            </g>
            <g id="Group-2" transform="translate(32.000000, 116.000000)" fill="#FFFFFF" fill-opacity="0.79622282" font-family="PingFangSC-Regular, PingFang SC" font-size="12" font-weight="normal" line-spacing="16">
                <text id="初始时">
                    <tspan x="0" y="13">初始时</tspan>
                </text>
                <text id="准备进入">
                    <tspan x="94" y="13">准备进入</tspan>
                </text>
                <text id="进入中">
                    <tspan x="200" y="13">进入中</tspan>
                </text>
                <text id="进入后">
                    <tspan x="300" y="13">进入后</tspan>
                </text>
                <text id="准备离开">
                    <tspan x="394.5" y="13">准备离开</tspan>
                </text>
                <text id="离开中">
                    <tspan x="500" y="13">离开中</tspan>
                </text>
                <text id="离开后">
                    <tspan x="600" y="13">离开后</tspan>
                </text>
            </g>
            <g id="Group-5" transform="translate(74.000000, 0.000000)">
                <text id="onBefore" font-family="PingFangSC-Regular, PingFang SC" font-size="12" font-weight="normal" line-spacing="16" fill="#FFB587">
                    <tspan x="0" y="25">onBefore</tspan>
                </text>
                <text id="onCancelled、onActive" font-family="PingFangSC-Regular, PingFang SC" font-size="12" font-weight="normal" line-spacing="16" fill="#72FF95">
                    <tspan x="211.5" y="13">onCancelled、onActive</tspan>
                </text>
                <text id="onAfter" font-family="PingFangSC-Regular, PingFang SC" font-size="12" font-weight="normal" line-spacing="16" fill="#8F95FF">
                    <tspan x="499" y="37">onAfter</tspan>
                </text>
                <path id="Line-3" d="M530.5,45.5 L530.5,46.5 L526.5,46.5 L526.5,58.5 L525.5,58.5 L525.5,46.5 L521.5,46.5 L521.5,45.5 L530.5,45.5 Z" fill="#8F95FF" fill-rule="nonzero"></path>
                <line x1="226" y1="58" x2="526" y2="58" id="Line" stroke="#8F95FF" stroke-linecap="square"></line>
                <line x1="226" y1="80" x2="226" y2="58" id="Line" stroke="#8F95FF" stroke-linecap="square"></line>
                <line x1="526" y1="80" x2="526" y2="58" id="Line" stroke="#8F95FF" stroke-linecap="square"></line>
                <path id="Line-3" d="M280.5,21.5 L280.5,22.5 L276.5,22.5 L276.5,34.5 L275.5,34.5 L275.5,22.5 L271.5,22.5 L271.5,21.5 L280.5,21.5 Z" fill="#72FF95" fill-rule="nonzero"></path>
                <line x1="126" y1="34" x2="426" y2="34" id="Line" stroke="#72FF95" stroke-linecap="square"></line>
                <line x1="426" y1="80" x2="426" y2="34" id="Line" stroke="#72FF95" stroke-linecap="square"></line>
                <line x1="126" y1="80" x2="126" y2="34" id="Line" stroke="#72FF95" stroke-linecap="square"></line>
                <path id="Line-3" d="M30.5,33.5 L30.5,34.5 L26.5,34.5 L26.5,46.5 L25.5,46.5 L25.5,34.5 L21.5,34.5 L21.5,33.5 L30.5,33.5 Z" fill="#FFB587" fill-rule="nonzero"></path>
                <line x1="326" y1="80" x2="326" y2="46" id="Line" stroke="#FFB587" stroke-linecap="square"></line>
                <line x1="26" y1="80" x2="26" y2="46" id="Line" stroke="#FFB587" stroke-linecap="square"></line>
                <line x1="26" y1="46" x2="326" y2="46" id="Line" stroke="#FFB587" stroke-linecap="square"></line>
            </g>
        </g>
        <g id="Group-10" transform="translate(447.000000, 417.000000)">
            <g id="Group-9">
                <text id="in-out" font-family="PingFangSC-Regular, PingFang SC" font-size="12" font-weight="normal" line-spacing="16" fill="#FFFFFF" fill-opacity="0.79622282">
                    <tspan x="17.5" y="40">in-out</tspan>
                </text>
                <g id="Group-6">
                    <g id="Group-12" transform="translate(0.000000, 5.000000)">
                        <mask id="mask-3" fill="white">
                            <use xlink:href="#path-2"></use>
                        </mask>
                        <use id="Rectangle" fill="#3F474D" xlink:href="#path-2"></use>
                        <rect id="Rectangle" fill="url(#linearGradient-4)" mask="url(#mask-3)" x="0" y="0" width="70" height="6"></rect>
                    </g>
                    <text id="1" font-family="PingFangSC-Regular, PingFang SC" font-size="12" font-weight="normal" line-spacing="16" fill="#FFFFFF" fill-opacity="0.79622282">
                        <tspan x="14" y="13">1</tspan>
                    </text>
                </g>
                <g id="Group-6" transform="translate(0.000000, 10.000000)">
                    <g id="Group-11" transform="translate(0.000000, 5.000000)">
                        <mask id="mask-6" fill="white">
                            <use xlink:href="#path-5"></use>
                        </mask>
                        <g id="Rectangle"></g>
                        <rect id="Rectangle" fill="url(#linearGradient-4)" mask="url(#mask-6)" x="0" y="0" width="70" height="6"></rect>
                    </g>
                    <text id="2" font-family="PingFangSC-Regular, PingFang SC" font-size="12" font-weight="normal" line-spacing="16" fill="#FFFFFF" fill-opacity="0.79622282">
                        <tspan x="49" y="13">2</tspan>
                    </text>
                </g>
            </g>
            <g id="Group-9" transform="translate(86.000000, 0.000000)">
                <text id="out-in" font-family="PingFangSC-Regular, PingFang SC" font-size="12" font-weight="normal" line-spacing="16" fill="#FFFFFF" fill-opacity="0.79622282">
                    <tspan x="17.5" y="40">out-in</tspan>
                </text>
                <g id="Group-6" transform="translate(0.000000, 10.000000)">
                    <g id="Group-12" transform="translate(0.000000, 5.000000)">
                        <mask id="mask-8" fill="white">
                            <use xlink:href="#path-7"></use>
                        </mask>
                        <use id="Rectangle" fill="#3F474D" xlink:href="#path-7"></use>
                        <rect id="Rectangle" fill="url(#linearGradient-4)" mask="url(#mask-8)" x="0" y="0" width="70" height="6"></rect>
                    </g>
                    <text id="2" font-family="PingFangSC-Regular, PingFang SC" font-size="12" font-weight="normal" line-spacing="16" fill="#FFFFFF" fill-opacity="0.79622282">
                        <tspan x="12.5" y="13">2</tspan>
                    </text>
                </g>
                <g id="Group-6">
                    <g id="Group-11" transform="translate(0.000000, 5.000000)">
                        <mask id="mask-10" fill="white">
                            <use xlink:href="#path-9"></use>
                        </mask>
                        <g id="Rectangle"></g>
                        <rect id="Rectangle" fill="url(#linearGradient-4)" mask="url(#mask-10)" x="0" y="0" width="70" height="6"></rect>
                    </g>
                    <text id="1" font-family="PingFangSC-Regular, PingFang SC" font-size="12" font-weight="normal" line-spacing="16" fill="#FFFFFF" fill-opacity="0.79622282">
                        <tspan x="50.5" y="13">1</tspan>
                    </text>
                </g>
            </g>
        </g>
        <g id="Group-14" transform="translate(40.000000, 195.000000)">
            <rect id="Rectangle" stroke="#3F474D" fill-opacity="0.6" fill="#000000" x="0" y="0" width="68" height="44"></rect>
            <text id="类名-样式" font-family="PingFangSC-Regular, PingFang SC" font-size="12" font-weight="normal" line-spacing="16">
                <tspan x="22" y="19" fill="#7EBEFF">类名</tspan>
                <tspan x="46.864" y="19" fill="#AFD7FF"></tspan>
                <tspan x="22" y="35" fill="#FF7791">样式</tspan>
            </text>
        </g>
        <g id="Group-15" transform="translate(20.000000, 20.000000)">
            <rect id="Rectangle" fill="#5E6C76" x="0" y="0" width="110" height="18" rx="3"></rect>
            <text id="transition-stages" font-family="PingFangSC-Regular, PingFang SC" font-size="12" font-weight="normal" line-spacing="18" fill="#191C1E">
                <tspan x="8" y="13">transition stages</tspan>
            </text>
        </g>
        <g id="Group-7" transform="translate(63.000000, 249.000000)" fill="#FFFFFF">
            <path id="Line-4" d="M22.5,-0.5 L22.5,71.5 L26.5,71.5 L22,80.5 L17.5,71.5 L21.5,71.5 L21.5,-0.5 L22.5,-0.5 Z" fill-rule="nonzero"></path>
            <text id="优-先-级-递-增" font-family="PingFangSC-Regular, PingFang SC" font-size="12" font-weight="normal" line-spacing="16">
                <tspan x="0" y="13">优</tspan>
                <tspan x="0" y="29">先</tspan>
                <tspan x="0" y="45">级</tspan>
                <tspan x="0" y="61">递</tspan>
                <tspan x="0" y="77">增</tspan>
            </text>
        </g>
    </g>
</svg>